# xmcd
#
# Track frame offsets: 
#        150
#        16222
#        28044
#        41685
#        64237
#        73708
#        93212
#        103222
#        120975
#        131007
#        145323
#        158571
#
# Disc length: 2281 seconds
#
# Revision: 0
# Processed by: cddbd v1.5.1PL0 Copyright (c) Steve Scherf et al.
# Submitted via: ExactAudioCopy v0.95a5
#
DISCID=a008e70c
DTITLE=Fontanna Sunset - Last Rose For Granpa
DYEAR=2000
DGENRE=Bluegrass
TTITLE0=Sweet Virginia
TTITLE1=Matters Of The Heart
TTITLE2=Lord I'm Blue
TTITLE3=Last Night I Fell For You
TTITLE4=Wasting Away
TTITLE5=Wings Of A Dove
TTITLE6=Bye Bye Love
TTITLE7=Last Rose For Grandpa
TTITLE8=Silence Or Tears
TTITLE9=Just My Heart In My Hand
TTITLE10=Home Sweet Highway
TTITLE11=Angels Rejoiced
EXTD=
EXTT0=
EXTT1=
EXTT2=
EXTT3=
EXTT4=
EXTT5=
EXTT6=
EXTT7=
EXTT8=
EXTT9=
EXTT10=
EXTT11=
PLAYORDER=
